<?xml version="1.0" encoding="UTF-8" standalone="no"?>
<!-- Created with Inkscape (http://www.inkscape.org/) -->

<svg
   xmlns:dc="http://purl.org/dc/elements/1.1/"
   xmlns:cc="http://creativecommons.org/ns#"
   xmlns:rdf="http://www.w3.org/1999/02/22-rdf-syntax-ns#"
   xmlns:svg="http://www.w3.org/2000/svg"
   xmlns="http://www.w3.org/2000/svg"
   xmlns:sodipodi="http://sodipodi.sourceforge.net/DTD/sodipodi-0.dtd"
   xmlns:inkscape="http://www.inkscape.org/namespaces/inkscape"
   width="1170.1459"
   height="453.79343"
   viewBox="0 0 309.60111 120.06618"
   version="1.1"
   id="svg8"
   inkscape:version="0.92.4 (5da689c313, 2019-01-14)"
   sodipodi:docname="logo2.svg"
   inkscape:export-filename="C:\Users\Acer\Desktop\logo.png"
   inkscape:export-xdpi="96"
   inkscape:export-ydpi="96">
  <defs
     id="defs2" />
  <sodipodi:namedview
     id="base"
     pagecolor="#ffffff"
     bordercolor="#666666"
     borderopacity="1.0"
     inkscape:pageopacity="0.0"
     inkscape:pageshadow="2"
     inkscape:zoom="0.24748737"
     inkscape:cx="193.45675"
     inkscape:cy="401.62688"
     inkscape:document-units="mm"
     inkscape:current-layer="layer1"
     showgrid="false"
     inkscape:window-width="1366"
     inkscape:window-height="745"
     inkscape:window-x="-8"
     inkscape:window-y="-8"
     inkscape:window-maximized="1"
     fit-margin-top="0"
     fit-margin-left="0"
     fit-margin-right="0"
     fit-margin-bottom="0"
     showguides="false"
     units="px" />
  <metadata
     id="metadata5">
    <rdf:RDF>
      <cc:Work
         rdf:about="">
        <dc:format>image/svg+xml</dc:format>
        <dc:type
           rdf:resource="http://purl.org/dc/dcmitype/StillImage" />
        <dc:title></dc:title>
      </cc:Work>
    </rdf:RDF>
  </metadata>
  <g
     inkscape:label="Layer 1"
     inkscape:groupmode="layer"
     id="layer1"
     transform="translate(2.4875566,-35.638165)">
    <g
       id="g1089">
      <g
         id="flowRoot826"
         style="font-style:normal;font-variant:normal;font-weight:normal;font-stretch:normal;font-size:10.58333302px;line-height:1.25;font-family:'Segoe Print';-inkscape-font-specification:'Segoe Print, Normal';font-variant-ligatures:normal;font-variant-caps:normal;font-variant-numeric:normal;font-feature-settings:normal;text-align:start;letter-spacing:0px;word-spacing:0px;writing-mode:lr-tb;text-anchor:start;fill:#f1582c;fill-opacity:1;stroke:#000000;stroke-width:0.26458332;stroke-opacity:1"
         transform="matrix(7.403572,0,0,8.5486502,-34.756301,-339.10035)"
         aria-label="chall">
        <path
           id="path982"
           style="font-style:normal;font-variant:normal;font-weight:normal;font-stretch:normal;font-size:10.58333302px;font-family:'Segoe Print';-inkscape-font-specification:'Segoe Print, Normal';font-variant-ligatures:normal;font-variant-caps:normal;font-variant-numeric:normal;font-feature-settings:normal;text-align:start;writing-mode:lr-tb;text-anchor:start;fill:#f1582c;fill-opacity:1;stroke:#000000;stroke-width:0.26458332;stroke-opacity:1"
           d="m 6.1078287,53.002475 q -0.7751464,0 -1.1937255,-0.444417 -0.4134115,-0.444418 -0.4134115,-1.245402 0,-1.348755 1.0697021,-2.842204 1.0697021,-1.498616 1.9895426,-1.498616 0.4185791,0 0.7183024,0.454752 0.3048909,0.449585 0.3048909,0.956014 0,0.304891 -0.1343587,0.5271 -0.1291911,0.217041 -0.2635498,0.217041 -0.2997233,0 -0.4237467,-0.604615 -0.1395264,-0.651123 -0.4030762,-0.651123 -0.5374348,0 -1.2712402,1.276408 -0.7338053,1.276408 -0.7338053,2.154907 0,0.8785 0.9973551,0.8785 0.7596436,0 1.7880045,-0.713135 0.3617351,-0.253214 0.5322673,-0.253214 0.1756998,0 0.1756998,0.201538 0,0.39274 -0.9250081,0.992187 -0.9250081,0.594279 -1.8138427,0.594279 z" />
        <path
           id="path984"
           style="font-style:normal;font-variant:normal;font-weight:normal;font-stretch:normal;font-size:10.58333302px;font-family:'Segoe Print';-inkscape-font-specification:'Segoe Print, Normal';font-variant-ligatures:normal;font-variant-caps:normal;font-variant-numeric:normal;font-feature-settings:normal;text-align:start;writing-mode:lr-tb;text-anchor:start;fill:#f1582c;fill-opacity:1;stroke:#000000;stroke-width:0.26458332;stroke-opacity:1"
           d="m 10.918904,51.157626 q 1.922363,-3.55017 3.167765,-3.55017 0.33073,0 0.537435,0.377238 0.206706,0.377238 0.335897,1.674316 0.129191,1.379761 0.583944,1.99471 0.232544,0.315226 0.232544,0.465088 0,0.134359 -0.15503,0.248047 -0.155029,0.113688 -0.330729,0.113688 -0.403076,0 -0.713134,-0.449585 -0.310059,-0.454752 -0.397909,-1.591634 -0.08785,-1.07487 -0.186035,-1.405599 -0.09819,-0.330729 -0.325562,-0.330729 -0.542602,0 -2.185913,2.837036 -0.490926,0.847493 -0.72347,1.111043 -0.232544,0.258382 -0.423746,0.258382 -0.227377,0 -0.382406,-0.134358 -0.1550293,-0.134359 -0.1550293,-0.330729 0,-0.144694 0.082682,-0.558106 0.63562,-3.281453 1.002523,-6.49056 0.08268,-0.749308 0.26355,-0.997355 0.186035,-0.248047 0.310058,-0.248047 0.222209,0 0.403076,0.180868 0.180868,0.180867 0.180868,0.501261 0,0.950847 -0.465088,2.60966 -0.227376,0.821655 -0.480591,2.087728 -0.253214,1.266072 -0.253214,1.565796 0,0.06201 0.05684,0.06201 z" />
        <path
           id="path986"
           style="font-style:normal;font-variant:normal;font-weight:normal;font-stretch:normal;font-size:10.58333302px;font-family:'Segoe Print';-inkscape-font-specification:'Segoe Print, Normal';font-variant-ligatures:normal;font-variant-caps:normal;font-variant-numeric:normal;font-feature-settings:normal;text-align:start;writing-mode:lr-tb;text-anchor:start;fill:#f1582c;fill-opacity:1;stroke:#000000;stroke-width:0.26458332;stroke-opacity:1"
           d="m 20.189656,50.826897 q -0.72347,0.971517 -1.431437,1.457276 -0.707967,0.485758 -1.297078,0.485758 -0.397909,0 -0.687297,-0.335897 -0.289388,-0.335897 -0.289388,-0.862996 0,-1.35909 1.214396,-2.924886 1.214396,-1.570964 2.413289,-1.570964 0.434083,0 0.645956,0.496094 0.06718,0.165365 0.211873,0.165365 0.413412,0 0.413412,0.320394 0,0.160197 -0.05168,0.439249 -0.279052,1.524455 -0.279052,2.14974 0,1.250569 0.475423,1.498616 0.227376,0.124024 0.227376,0.304891 0,0.160197 -0.222209,0.320394 -0.222208,0.165365 -0.428914,0.165365 -0.397909,0 -0.656291,-0.547771 -0.258382,-0.54777 -0.258382,-1.560628 z M 19.87443,47.917514 q -0.682129,0 -1.586467,1.281576 -0.904337,1.276408 -0.904337,2.118733 0,0.594279 0.392741,0.594279 0.568441,0 1.576131,-1.147216 1.00769,-1.147217 1.00769,-2.108399 0,-0.738973 -0.485758,-0.738973 z" />
        <path
           id="path988"
           style="font-style:normal;font-variant:normal;font-weight:normal;font-stretch:normal;font-size:10.58333302px;font-family:'Segoe Print';-inkscape-font-specification:'Segoe Print, Normal';font-variant-ligatures:normal;font-variant-caps:normal;font-variant-numeric:normal;font-feature-settings:normal;text-align:start;writing-mode:lr-tb;text-anchor:start;fill:#f1582c;fill-opacity:1;stroke:#000000;stroke-width:0.26458332;stroke-opacity:1"
           d="m 24.737183,43.9591 q 0.37207,0 0.37207,0.475423 0,0.423747 -0.449585,2.015381 -0.28422,1.002522 -0.43925,2.211751 -0.155029,1.209228 -0.155029,1.896525 0,0.852661 0.10852,1.694987 0.02067,0.160197 0.02067,0.232544 0,0.258382 -0.1757,0.444417 -0.1757,0.186035 -0.37207,0.186035 -0.273885,0 -0.382406,-0.341064 -0.103353,-0.341065 -0.103353,-1.100708 0,-1.731161 0.413412,-4.289144 0.418579,-2.557983 0.661458,-2.992065 0.248047,-0.434082 0.501262,-0.434082 z" />
        <path
           id="path990"
           style="font-style:normal;font-variant:normal;font-weight:normal;font-stretch:normal;font-size:10.58333302px;font-family:'Segoe Print';-inkscape-font-specification:'Segoe Print, Normal';font-variant-ligatures:normal;font-variant-caps:normal;font-variant-numeric:normal;font-feature-settings:normal;text-align:start;writing-mode:lr-tb;text-anchor:start;fill:#f1582c;fill-opacity:1;stroke:#000000;stroke-width:0.26458332;stroke-opacity:1"
           d="m 27.775757,43.9591 q 0.37207,0 0.37207,0.475423 0,0.423747 -0.449585,2.015381 -0.28422,1.002522 -0.43925,2.211751 -0.155029,1.209228 -0.155029,1.896525 0,0.852661 0.108521,1.694987 0.02067,0.160197 0.02067,0.232544 0,0.258382 -0.1757,0.444417 -0.175699,0.186035 -0.37207,0.186035 -0.273885,0 -0.382406,-0.341064 -0.103352,-0.341065 -0.103352,-1.100708 0,-1.731161 0.413411,-4.289144 0.418579,-2.557983 0.661458,-2.992065 0.248047,-0.434082 0.501262,-0.434082 z" />
      </g>
      <g
         id="flowRoot864"
         style="font-style:normal;font-variant:normal;font-weight:normal;font-stretch:normal;font-size:40px;line-height:1.25;font-family:'Segoe Print';-inkscape-font-specification:'Segoe Print, Normal';font-variant-ligatures:normal;font-variant-caps:normal;font-variant-numeric:normal;font-feature-settings:normal;text-align:start;letter-spacing:0px;word-spacing:0px;writing-mode:lr-tb;text-anchor:start;fill:#f3ed15;fill-opacity:1;stroke:#000000;stroke-opacity:1"
         transform="matrix(1.9588618,0,0,2.2618303,141.07482,-337.86341)"
         aria-label="e">
        <path
           id="path993"
           style=""
           d="m 34.46875,192.58782 q 0,1.99219 -3.535156,4.80469 -3.515625,2.8125 -7.265625,2.8125 -3.144532,0 -4.863282,-1.85547 -1.699218,-1.85547 -1.699218,-5.17578 0,-5.58594 3.769531,-10.625 3.769531,-5.03907 8.242187,-5.03907 1.464844,0 2.382813,0.95704 0.9375,0.95703 0.9375,2.30468 0,3.00782 -2.949219,5.76172 -2.949219,2.75391 -7.890625,5.41016 -1.015625,0.52734 -1.015625,1.36719 0,1.62109 0.9375,2.59765 0.9375,0.97656 2.773438,0.97656 4.199218,0 8.574218,-4.64843 0.644532,-0.64453 0.976563,-0.64453 0.625,0 0.625,0.99609 z m -13.574219,-3.04688 q 8.28125,-4.92187 8.28125,-7.91015 0,-1.17188 -1.054687,-1.17188 -1.796875,0 -4.0625,2.63672 -2.246094,2.63672 -3.164063,6.44531 z" />
      </g>
      <g
         id="flowRoot874"
         style="font-style:normal;font-variant:normal;font-weight:normal;font-stretch:normal;font-size:40px;line-height:1.25;font-family:'Segoe Print';-inkscape-font-specification:'Segoe Print, Normal';font-variant-ligatures:normal;font-variant-caps:normal;font-variant-numeric:normal;font-feature-settings:normal;text-align:start;letter-spacing:0px;word-spacing:0px;writing-mode:lr-tb;text-anchor:start;fill:#24abe3;fill-opacity:1;stroke:#000000;stroke-opacity:1"
         transform="matrix(1.9588618,0,0,2.2618303,180.75367,-337.46582)"
         aria-label="du">
        <path
           id="path996"
           style=""
           d="m 31.753906,191.12298 q -2.617187,4.19921 -5.546875,6.48437 -2.929687,2.26563 -5.390625,2.26563 -1.894531,0 -3.007812,-1.44532 -1.09375,-1.46484 -1.09375,-3.88672 0,-4.9414 4.003906,-10.13671 4.023437,-5.19532 8.671875,-5.19532 2.03125,0 3.769531,1.73828 l 2.734375,-12.77343 q 0.292969,-1.3086 1.074219,-1.75782 0.800781,-0.44921 1.25,-0.44921 1.367187,0 1.367187,2.42187 0,0.42969 -0.898437,3.20313 -1.425781,4.29687 -2.714844,10.5664 -1.269531,6.25 -1.269531,10.03906 0,3.90625 1.699219,3.90625 1.09375,0 2.265625,-0.72265 0.488281,-0.35156 0.917968,-0.35156 0.625,0 0.625,0.82031 0,0.99609 -1.757812,2.30469 -1.738281,1.30859 -3.574219,1.30859 -3.222656,0 -3.222656,-6.21094 0,-1.05469 0.09766,-2.1289 z m -2.558594,-9.14063 q -3.164062,0 -6.269531,4.29688 -3.105469,4.27734 -3.105469,7.91015 0,2.44141 1.621094,2.44141 1.523438,0 3.691406,-1.60156 2.1875,-1.60157 4.492188,-5.09766 2.304687,-3.51563 2.304687,-5.27344 0,-0.85937 -0.800781,-1.75781 -0.78125,-0.91797 -1.933594,-0.91797 z" />
        <path
           id="path998"
           style=""
           d="m 58.023437,190.71282 q -2.5,4.19922 -5.117187,6.50391 -2.617188,2.30468 -4.863281,2.30468 -1.289063,0 -2.636719,-1.5039 -1.328125,-1.50391 -1.328125,-4.62891 0,-2.55859 1.230469,-7.53906 1.035156,-4.16016 1.035156,-5.83985 0.566406,-1.17187 1.777344,-1.17187 0.820312,0 1.308593,0.58594 0.488282,0.5664 0.488282,1.1914 0,1.36719 -0.957032,3.88672 -1.816406,4.90235 -1.816406,8.41797 0,3.20313 1.484375,3.20313 1.894531,0 4.824219,-3.22266 2.929687,-3.22266 5.019531,-8.98438 0.820313,-2.30468 1.328125,-2.98828 0.527344,-0.70312 1.40625,-0.70312 1.328125,0 1.328125,1.75781 0,0.21484 -0.371094,1.42578 -1.171875,4.27735 -1.171875,8.08594 0,4.57031 1.503907,5.91797 0.78125,0.72265 0.78125,1.17187 0,0.54688 -0.800782,0.9961 -0.78125,0.44922 -1.425781,0.44922 -1.367187,0 -2.207031,-2.03125 -0.839844,-2.03125 -0.839844,-5.9961 v -0.64453 q 0,-0.3125 0.01953,-0.64453 z" />
      </g>
      <g
         id="flowRoot884"
         style="font-style:normal;font-variant:normal;font-weight:bold;font-stretch:condensed;font-size:3.52777767px;line-height:1.25;font-family:'Agency FB';-inkscape-font-specification:'Agency FB, Bold Condensed';font-variant-ligatures:normal;font-variant-caps:normal;font-variant-numeric:normal;font-feature-settings:normal;text-align:start;letter-spacing:0px;word-spacing:0px;writing-mode:lr-tb;text-anchor:start;fill:#000000;fill-opacity:1;stroke:none;stroke-width:0.26458332;stroke-opacity:1"
         transform="matrix(8.9573095,0,0,10.342697,-36.650408,-336.19631)"
         aria-label="inclusion | games | education">
        <path
           id="path1001"
           style=""
           d="M 4.5523681,44.935027 H 4.1579047 v -0.406522 h 0.3944634 z m -0.00345,1.989542 H 4.1613498 v -1.739773 h 0.3875733 z" />
        <path
           id="path1003"
           style=""
           d="m 6.0010308,46.924569 h -0.396186 v -1.410766 l -0.3703478,0.0069 v 1.403876 H 4.8400336 V 45.184796 H 5.234497 v 0.06373 q 0.1378039,-0.02239 0.2738851,-0.04306 0.1688097,-0.02756 0.2773302,-0.02756 0.2153185,0 0.2153185,0.211873 z" />
        <path
           id="path1005"
           style=""
           d="m 7.4117973,46.709251 q 0,0.215318 -0.2187635,0.215318 H 6.5091823 q -0.2222086,0 -0.2222086,-0.215318 v -1.309136 q 0,-0.215319 0.2222086,-0.215319 h 0.6838515 q 0.2187635,0 0.2187635,0.215319 v 0.413411 H 7.0276692 V 45.513803 H 6.6745469 v 1.083482 h 0.3531223 v -0.332451 h 0.3841281 z" />
        <path
           id="path1007"
           style=""
           d="M 8.0904811,46.924569 H 7.7029078 v -2.695787 h 0.3875733 z" />
        <path
           id="path1009"
           style=""
           d="M 9.5391436,46.924569 H 9.1464027 v -0.06029 q -0.1360813,0.02239 -0.2738851,0.04479 -0.1670871,0.02584 -0.2756076,0.02584 -0.2153185,0 -0.2153185,-0.215319 v -1.53479 h 0.3910184 v 1.412489 l 0.3737928,-0.0086 v -1.403876 h 0.3927409 z" />
        <path
           id="path1011"
           style=""
           d="m 10.922349,46.709251 q 0,0.215318 -0.218763,0.215318 h -0.663181 q -0.2187637,0 -0.2187637,-0.215318 v -0.373793 h 0.3772377 v 0.292833 h 0.346232 V 46.352683 L 9.9404971,45.996116 q -0.1188558,-0.07062 -0.1188558,-0.18948 v -0.406521 q 0,-0.215319 0.2222087,-0.215319 h 0.656291 q 0.218763,0 0.218763,0.215319 v 0.349677 h -0.373793 v -0.268718 h -0.346232 v 0.251492 l 0.602892,0.353123 q 0.120578,0.0689 0.120578,0.192925 z" />
        <path
           id="path1013"
           style=""
           d="M 11.601033,44.935027 H 11.20657 v -0.406522 h 0.394463 z m -0.0034,1.989542 h -0.387573 v -1.739773 h 0.387573 z" />
        <path
           id="path1015"
           style=""
           d="m 13.035916,46.709251 q 0,0.215318 -0.218764,0.215318 h -0.706245 q -0.222208,0 -0.222208,-0.215318 v -1.309136 q 0,-0.215319 0.222208,-0.215319 h 0.706245 q 0.218764,0 0.218764,0.215319 z m -0.385851,-0.111966 v -1.083482 h -0.373793 v 1.083482 z" />
        <path
           id="path1017"
           style=""
           d="M 14.482856,46.924569 H 14.08667 v -1.410766 l -0.370348,0.0069 v 1.403876 h -0.394463 v -1.739773 h 0.394463 v 0.06373 q 0.137804,-0.02239 0.273885,-0.04306 0.16881,-0.02756 0.27733,-0.02756 0.215319,0 0.215319,0.211873 z" />
        <path
           id="path1019"
           style=""
           d="M 15.922906,47.544686 H 15.53361 v -3.315904 h 0.389296 z" />
        <path
           id="path1021"
           style=""
           d="m 18.127767,47.344871 q 0,0.215318 -0.222209,0.215318 h -0.685574 q -0.222209,0 -0.222209,-0.215318 v -0.279053 h 0.380683 v 0.208428 h 0.356568 v -0.360012 h -0.404799 q -0.165364,0 -0.26355,-0.09302 -0.09646,-0.09302 -0.09646,-0.256659 v -1.064535 q 0,-0.149861 0.0844,-0.235989 0.08441,-0.08613 0.232544,-0.08613 0.07407,0 0.447863,0.07062 v -0.06373 h 0.392741 z m -0.392741,-0.747586 v -1.069702 q -0.198093,-0.02067 -0.246325,-0.02067 -0.127468,0 -0.127468,0.125746 v 0.833713 q 0,0.130913 0.130914,0.130913 z" />
        <path
           id="path1023"
           style=""
           d="M 19.535088,46.924569 H 19.15785 v -0.06029 q -0.134358,0.02067 -0.268717,0.04134 -0.1757,0.02584 -0.266995,0.02584 -0.215318,0 -0.215318,-0.211873 v -0.627007 q 0,-0.215319 0.222208,-0.215319 h 0.532268 v -0.399631 h -0.377238 v 0.248047 H 18.42749 v -0.325561 q 0,-0.215319 0.222209,-0.215319 h 0.666626 q 0.218763,0 0.218763,0.215319 z m -0.373792,-0.313503 v -0.466811 h -0.377238 v 0.480591 z" />
        <path
           id="path1025"
           style=""
           d="m 21.738227,46.924569 h -0.391019 v -1.410766 l -0.370347,0.0069 v 1.403876 H 20.58412 v -1.410766 l -0.370348,0.0069 v 1.403876 h -0.394464 v -1.739773 h 0.394464 v 0.06373 q 0.137804,-0.02239 0.273885,-0.04479 0.167087,-0.02584 0.27733,-0.02584 0.136081,0 0.1757,0.07751 0.144694,-0.02239 0.289388,-0.04651 0.191203,-0.03101 0.292833,-0.03101 0.215319,0 0.215319,0.211873 z" />
        <path
           id="path1027"
           style=""
           d="m 23.148994,46.709251 q 0,0.215318 -0.222209,0.215318 h -0.680406 q -0.222209,0 -0.222209,-0.215318 v -1.309136 q 0,-0.215319 0.222209,-0.215319 h 0.680406 q 0.222209,0 0.222209,0.215319 v 0.639065 l -0.108521,0.10852 h -0.639065 v 0.487481 h 0.370348 v -0.289388 h 0.377238 z m -0.377238,-0.81821 v -0.416857 h -0.370348 v 0.416857 z" />
        <path
           id="path1029"
           style=""
           d="m 24.530477,46.709251 q 0,0.215318 -0.218764,0.215318 h -0.663181 q -0.218763,0 -0.218763,-0.215318 v -0.373793 h 0.377238 v 0.292833 h 0.346232 v -0.275608 l -0.604614,-0.356567 q -0.118856,-0.07062 -0.118856,-0.18948 v -0.406521 q 0,-0.215319 0.222209,-0.215319 h 0.65629 q 0.218764,0 0.218764,0.215319 v 0.349677 h -0.373793 v -0.268718 h -0.346232 v 0.251492 l 0.602892,0.353123 q 0.120578,0.0689 0.120578,0.192925 z" />
        <path
           id="path1031"
           style=""
           d="m 25.961913,47.544686 h -0.389296 v -3.315904 h 0.389296 z" />
        <path
           id="path1033"
           style=""
           d="m 28.137491,46.709251 q 0,0.215318 -0.222209,0.215318 h -0.680406 q -0.222209,0 -0.222209,-0.215318 v -1.309136 q 0,-0.215319 0.222209,-0.215319 h 0.680406 q 0.222209,0 0.222209,0.215319 V 46.03918 L 28.02897,46.1477 h -0.639065 v 0.487481 h 0.370348 v -0.289388 h 0.377238 z m -0.377238,-0.81821 v -0.416857 h -0.370348 v 0.416857 z" />
        <path
           id="path1035"
           style=""
           d="m 29.579263,46.924569 h -0.392741 v -0.06029 q -0.399631,0.07062 -0.447862,0.07062 -0.14814,0 -0.232544,-0.08613 -0.08441,-0.08785 -0.08441,-0.237711 v -1.076593 q 0,-0.211873 0.151584,-0.294555 0.110243,-0.06201 0.334174,-0.06201 0.04995,0 0.144694,0.0034 0.09474,0.0034 0.134359,0.0034 v -0.956014 h 0.392741 z m -0.392741,-0.339342 v -1.071424 h -0.242879 q -0.130914,0 -0.130914,0.130913 v 0.831991 q 0,0.127468 0.124024,0.127468 0.02928,0 0.249769,-0.01895 z" />
        <path
           id="path1037"
           style=""
           d="m 31.022758,46.924569 h -0.392741 v -0.06029 q -0.136081,0.02239 -0.273885,0.04479 -0.167087,0.02584 -0.275608,0.02584 -0.215318,0 -0.215318,-0.215319 v -1.53479 h 0.391018 v 1.412489 l 0.373793,-0.0086 v -1.403876 h 0.392741 z" />
        <path
           id="path1039"
           style=""
           d="m 32.436971,46.709251 q 0,0.215318 -0.218764,0.215318 h -0.683851 q -0.222209,0 -0.222209,-0.215318 v -1.309136 q 0,-0.215319 0.222209,-0.215319 h 0.683851 q 0.218764,0 0.218764,0.215319 v 0.413411 h -0.384128 v -0.299723 h -0.353122 v 1.083482 h 0.353122 v -0.332451 h 0.384128 z" />
        <path
           id="path1041"
           style=""
           d="m 33.839124,46.924569 h -0.377238 v -0.06029 q -0.134359,0.02067 -0.268718,0.04134 -0.1757,0.02584 -0.266995,0.02584 -0.215318,0 -0.215318,-0.211873 v -0.627007 q 0,-0.215319 0.222208,-0.215319 h 0.532268 v -0.399631 h -0.377238 v 0.248047 h -0.356568 v -0.325561 q 0,-0.215319 0.222209,-0.215319 h 0.666626 q 0.218764,0 0.218764,0.215319 z m -0.373793,-0.313503 v -0.466811 h -0.377238 v 0.480591 z" />
        <path
           id="path1043"
           style=""
           d="m 34.874375,46.924569 h -0.437527 q -0.218763,0 -0.218763,-0.215318 V 45.520693 H 34.03205 v -0.335897 h 0.186035 v -0.471978 h 0.392741 v 0.471978 h 0.253214 v 0.335897 h -0.253214 v 1.067979 h 0.263549 z" />
        <path
           id="path1045"
           style=""
           d="m 35.496216,44.935027 h -0.394464 v -0.406522 h 0.394464 z m -0.0034,1.989542 h -0.387574 v -1.739773 h 0.387574 z" />
        <path
           id="path1047"
           style=""
           d="m 36.931097,46.709251 q 0,0.215318 -0.218763,0.215318 h -0.706245 q -0.222209,0 -0.222209,-0.215318 v -1.309136 q 0,-0.215319 0.222209,-0.215319 h 0.706245 q 0.218763,0 0.218763,0.215319 z m -0.38585,-0.111966 v -1.083482 h -0.373793 v 1.083482 z" />
        <path
           id="path1049"
           style=""
           d="M 38.378036,46.924569 H 37.98185 v -1.410766 l -0.370347,0.0069 v 1.403876 h -0.394464 v -1.739773 h 0.394464 v 0.06373 q 0.137804,-0.02239 0.273885,-0.04306 0.168809,-0.02756 0.27733,-0.02756 0.215318,0 0.215318,0.211873 z" />
      </g>
    </g>
  </g>
</svg>
